<svg xmlns="http://www.w3.org/2000/svg" width="49" height="49" viewBox="0 0 49 49">
  <defs>
    <style>
      .cls-1 {
        fill: #ffc000;
        fill-rule: evenodd;
      }
    </style>
  </defs>
  <path id="Forma_1" data-name="Forma 1" class="cls-1" d="M288.357,3024.61a0.716,0.716,0,0,0-.784.16l-7.86,7.88a0.732,0.732,0,0,0-.156.79,0.715,0.715,0,0,0,.665.44h7.86a0.718,0.718,0,0,0,.719-0.72v-7.88A0.728,0.728,0,0,0,288.357,3024.61Zm-6.4,7.83,5.4-5.42v5.42h-5.4Zm11.6-19.39a0.731,0.731,0,0,0-.784.15l-2.154,2.16v-14.69a0.718,0.718,0,0,0-.719-0.72h-5.526l2.006-2.01h0l1.933-1.94a2.2,2.2,0,0,0,.642-1.56,2.163,2.163,0,0,0-.642-1.55l-2.235-2.25a2.2,2.2,0,0,0-3.1,0l-1.934,1.94-2.336,2.35-5.006,5.02H251.376v-7.14a0.718,0.718,0,0,0-.719-0.72,5.676,5.676,0,0,0-5.657,5.68v30.64a0.791,0.791,0,0,0,.017.16,5.471,5.471,0,0,0,5.431,5.05h21.977l-4.139,4.15a0.711,0.711,0,0,0-.156.78,0.724,0.724,0,0,0,.665.45h24.486a0.718,0.718,0,0,0,.719-0.72v-24.57A0.712,0.712,0,0,0,293.556,3013.05Zm-9.562-21.39a0.763,0.763,0,0,1,1.067,0l2.235,2.25a0.759,0.759,0,0,1,0,1.07l-1.425,1.43-3.3-3.32Zm-2.443,2.45,3.3,3.32-1.319,1.32-3.3-3.31Zm11.011,27.71h-1.327a0.72,0.72,0,0,0,0,1.44h1.327v2.18h-1.327a0.72,0.72,0,0,0,0,1.44h1.327v2.18h-1.327a0.72,0.72,0,0,0,0,1.44h1.327v2.17h-1.327a0.725,0.725,0,0,0,0,1.45h1.327v3.44H270.531l7.265-7.29a0.724,0.724,0,0,0,0-1.02c-0.033-.03-0.067-0.06-0.1-0.09a0.72,0.72,0,0,0-.914.09l-2.914,2.92H250.448a3.993,3.993,0,0,1-4.006-3.89c0-.14.015-0.27,0.032-0.41h0c0.008-.06.018-0.13,0.029-0.19,0-.01,0-0.01,0-0.02,0.01-.06.022-0.11,0.034-0.17,0-.02.007-0.03,0.011-0.05,0.011-.04.023-0.09,0.035-0.14,0.007-.02.014-0.05,0.022-0.07a0.916,0.916,0,0,1,.033-0.11,1.1,1.1,0,0,1,.036-0.11c0.009-.03.017-0.05,0.027-0.08s0.036-.09.055-0.14a0.163,0.163,0,0,0,.016-0.04c0.025-.05.051-0.11,0.078-0.17h0a4.23,4.23,0,0,1,2.943-2.31s0.007,0,.011-0.01l0.18-.03h0.03a0.929,0.929,0,0,1,.165-0.02,0.08,0.08,0,0,1,.047-0.01,0.866,0.866,0,0,1,.161-0.01c0.017,0,.034-0.01.051-0.01h0.213a0.718,0.718,0,0,0,.719-0.72v-5.23a0.72,0.72,0,1,0-1.439,0v4.55a5.654,5.654,0,0,0-3.23,1.57c-0.094.09-.182,0.19-0.269,0.28v-26.86a4.249,4.249,0,0,1,3.5-4.18v21.75h0a0.72,0.72,0,1,0,1.439,0h0v-13.95h20.886l-3.976,3.99a0.72,0.72,0,1,0,1.017,1.02l5.2-5.22h0l4.707-4.72,3.3,3.31-0.387.39h0l-14.5,14.55-3.3-3.31,2.859-2.87a0.72,0.72,0,0,0-1.017-1.02l-3.368,3.38a0.2,0.2,0,0,0-.05.05,0.034,0.034,0,0,1-.015.02c-0.01.02-.02,0.03-0.029,0.05a0.031,0.031,0,0,0-.016.02c-0.007.01-.015,0.03-0.022,0.04s-0.009.02-.013,0.03-0.012.03-.018,0.04,0,0.01-.006.02l-1.4,3.98-0.956,2.71c-0.012.04-.021,0.08-0.028,0.11h-2.392a0.725,0.725,0,0,0,0,1.45h19.917a0.725,0.725,0,0,0,0-1.45H263.48l4.386-1.55h0.01l0.051-.03h0.019l0.051-.03a0.016,0.016,0,0,1,.016-0.01c0.018-.01.034-0.03,0.051-0.04a0.011,0.011,0,0,0,.012-0.01,0.242,0.242,0,0,0,.059-0.05l14.8-14.85h6.245v15.42l-10.288,10.32a0.722,0.722,0,0,0,0,1.02c0.017,0.02.036,0.03,0.055,0.05a0.723,0.723,0,0,0,.907,0c0.019-.02.038-0.03,0.055-0.05h0l12.653-12.69v6.36Zm-26.251-6.39-2.06.73-1.373-1.38,0.727-2.06Z" transform="translate(-245 -2990)"/>
</svg>
