<svg xmlns="http://www.w3.org/2000/svg" width="50" height="50" viewBox="0 0 50 50">
  <defs>
    <style>
      .cls-1 {
        fill: #ffc000;
        fill-rule: evenodd;
      }
    </style>
  </defs>
  <path class="cls-1" d="M1051.5,3204.5c-4.97-2.64-8.79-4.12-12.18-4.68l0.35-.49a0.631,0.631,0,0,0,.16-0.66l-0.78-3.13a17.789,17.789,0,0,0,3.28-10.04v-3.33h2.5a0.835,0.835,0,1,0,0-1.67H1044v-0.83a14.476,14.476,0,0,0-10.83-14v-0.17a2.514,2.514,0,0,0-2.5-2.5h-3.34a2.507,2.507,0,0,0-2.5,2.5v0.17a14.476,14.476,0,0,0-10.83,14v0.83h-0.83a0.835,0.835,0,1,0,0,1.67h2.5v3.33a17.789,17.789,0,0,0,3.28,10.04l-0.78,3.13a1.016,1.016,0,0,0,.16.66l0.35,0.49c-3.39.56-7.21,2.04-12.18,4.68a4.433,4.433,0,0,0-2.5,4.08v3.59a0.782,0.782,0,0,0,.83.83h48.34a0.782,0.782,0,0,0,.83-0.83v-3.59A4.777,4.777,0,0,0,1051.5,3204.5Zm-23-.77,0.5-1.14,1.25,2.74,0.81,1.84H1027Zm-2.13,5.1h5.26l0.47,2.5h-6.23Zm11.38-11.66,0.33,1.5-0.85,1.17a0.781,0.781,0,0,0-.15.16l-3.46,4.8-1.1,1.51-2.25-5.06a11.979,11.979,0,0,0,7.02-3.61l0.06-.06,0.02-.02C1037.5,3197.43,1037.62,3197.3,1037.75,3197.17Zm-1.09-28.08c0.1,0.07.19,0.13,0.28,0.19a14.523,14.523,0,0,1,2.81,2.72l-3.83.75Zm-14.58,3.66-3.83-.75a14.523,14.523,0,0,1,2.81-2.72c0.09-.06.18-0.12,0.28-0.19Zm-6.41,6.92a12.542,12.542,0,0,1,1.57-6.14l5.76,1.14h0.17a2.012,2.012,0,0,0,.66-0.17,0.664,0.664,0,0,0,.25-0.75l-1.14-5.57a13.013,13.013,0,0,1,1.89-.74v2.23a0.79,0.79,0,0,0,.84.83,0.782,0.782,0,0,0,.83-0.83v-4.17a0.827,0.827,0,0,1,.83-0.83h3.34a0.834,0.834,0,0,1,.83.83v4.17a0.782,0.782,0,0,0,.83.83,0.79,0.79,0,0,0,.84-0.83v-2.23a13.874,13.874,0,0,1,1.95.77l-1.12,5.46a1.151,1.151,0,0,0,.25.75,0.778,0.778,0,0,0,.58.25H1035l5.73-1.21a12.668,12.668,0,0,1,1.6,6.21v0.83h-26.66v-0.83h0Zm1.66,2.5h23.34v3.33a15.393,15.393,0,0,1-3.12,9.32l-0.05.01c-0.08.09-.17,0.17-0.25,0.25a14.249,14.249,0,0,1-1.32,1.53,10.69,10.69,0,0,1-6.56,3.05,0.946,0.946,0,0,0-.37-0.08,0.817,0.817,0,0,0-.35.08,9.487,9.487,0,0,1-4.13-1.25,13.585,13.585,0,0,1-3.77-3.33c-0.08-.08-0.17-0.16-0.25-0.25l-0.05-.01a15.393,15.393,0,0,1-3.12-9.32v-3.33h0Zm10.4,19.08-2.25,5.06-1.1-1.51-3.46-4.8c-0.03-.03-0.06-0.05-0.09-0.08l-0.91-1.25,0.33-1.5c0.11,0.12.23,0.24,0.34,0.35A12.092,12.092,0,0,0,1027.73,3201.25Zm-22.06,7.33a2.856,2.856,0,0,1,1.58-2.58c5.31-2.82,9.14-4.24,12.54-4.66l4.97,6.84-0.63,3.15h-18.46v-2.75Zm46.66,2.75h-18.46l-0.63-3.15,5.02-6.92c3.4,0.52,7.29,1.93,12.49,4.66a3.069,3.069,0,0,1,1.58,2.66v2.75Z" transform="translate(-1004 -3163)"/>
</svg>
