<svg xmlns="http://www.w3.org/2000/svg" width="50" height="50" viewBox="0 0 50 50">
  <defs>
    <style>
      .cls-1 {
        fill: #ffc000;
        fill-rule: evenodd;
      }
    </style>
  </defs>
  <path id="Forma_1" data-name="Forma 1" class="cls-1" d="M667.986,3030.21a2.585,2.585,0,1,0,2.6,2.58A2.6,2.6,0,0,0,667.986,3030.21Zm0,3.64a1.055,1.055,0,1,1,1.06-1.06A1.064,1.064,0,0,1,667.986,3033.85Zm7.011-1.19a6.724,6.724,0,0,0-2.271-4.9L657.2,3013.84l13.728-13.63a1.375,1.375,0,0,0,.265-0.11l2.973-1.56a1.434,1.434,0,0,0,.348-2.29l-3.347-3.32a1.449,1.449,0,0,0-2.3.34l-1.569,2.96a1.3,1.3,0,0,0-.108.26l-6.479,6.44a0.757,0.757,0,0,0,0,1.08,0.773,0.773,0,0,0,1.09,0l5.946-5.9,1.559,1.54L654.1,3014.76l-1.558-1.55,6.637-6.59a0.757,0.757,0,0,0,0-1.08,0.773,0.773,0,0,0-1.09,0l-4.816,4.78-5.242-4.7a11.706,11.706,0,0,0-2.813-12.18,11.921,11.921,0,0,0-12.62-2.66,0.757,0.757,0,0,0-.478.56,0.769,0.769,0,0,0,.209.7l6.054,6.01a0.949,0.949,0,0,1,.278.67,0.905,0.905,0,0,1-.278.66l-3.931,3.91a0.944,0.944,0,0,1-1.342,0l-6.054-6.01a0.745,0.745,0,0,0-.706-0.21,0.759,0.759,0,0,0-.559.47,11.727,11.727,0,0,0,2.68,12.54,11.943,11.943,0,0,0,12.022,2.87l4.052,4.41a4.283,4.283,0,0,1-.76,1.04,4.2,4.2,0,0,1-4.461.93,0.782,0.782,0,0,0-.824.17l-9.443,9.38a6.534,6.534,0,0,0,9.272,9.21l9.442-9.38a0.757,0.757,0,0,0,.174-0.82,4.123,4.123,0,0,1,.938-4.43,4.183,4.183,0,0,1,4.46-.93,0.783,0.783,0,0,0,.825-0.17l1.781-1.77a2.808,2.808,0,0,0,0-3.99l-0.758-.76,0.922-.91,15.585,13.96a5.292,5.292,0,0,1,.2,7.7,5.374,5.374,0,0,1-7.719-.17l-11.588-12.59a0.767,0.767,0,1,0-1.138,1.03l11.588,12.59a6.836,6.836,0,0,0,4.926,2.22h0.159a6.862,6.862,0,0,0,4.862-2A6.755,6.755,0,0,0,675,3032.66Zm-6.306-35.78,1.476-2.78,3.165,3.15-2.8,1.46Zm-27.408,14.67a0.773,0.773,0,0,0-.838-0.2,10.4,10.4,0,0,1-10.888-2.35,10.214,10.214,0,0,1-2.7-9.75l5.159,5.12a2.489,2.489,0,0,0,3.522,0l3.932-3.9a2.465,2.465,0,0,0,0-3.5l-5.158-5.13a10.365,10.365,0,0,1,9.811,2.69,10.172,10.172,0,0,1,2.283,11.03,0.756,0.756,0,0,0,.2.85l5.572,4.99-0.73.73-0.758-.75a2.844,2.844,0,0,0-4.016,0l-1.781,1.77a0.759,0.759,0,0,0-.173.82,4.083,4.083,0,0,1,.279,1.61Zm13.57,7.95-1.443,1.44a5.737,5.737,0,0,0-5.623,1.44h0a5.646,5.646,0,0,0-1.449,5.58l-9.1,9.05a5,5,0,1,1-7.091-7.05l9.105-9.04a5.737,5.737,0,0,0,5.623-1.44,5.658,5.658,0,0,0,1.449-5.59l1.443-1.43a1.309,1.309,0,0,1,1.834,0l1.3,1.29,2.649,2.64,1.3,1.29A1.281,1.281,0,0,1,654.853,3019.5Zm-14.061,4.31a0.774,0.774,0,0,0-1.091,0l-7.305,7.26a0.759,0.759,0,0,0,0,1.08,0.762,0.762,0,0,0,1.091,0l7.305-7.25A0.771,0.771,0,0,0,640.792,3023.81Zm2.7,2.68a0.792,0.792,0,0,0-1.09,0l-7.306,7.26a0.771,0.771,0,0,0,1.091,1.09l7.3-7.26A0.771,0.771,0,0,0,643.491,3026.49Z" transform="translate(-625 -2990)"/>
</svg>
