<svg xmlns="http://www.w3.org/2000/svg" width="65" height="51" viewBox="0 0 65 51">
  <defs>
    <style>
      .cls-1 {
        fill: #ffc000;
        fill-rule: evenodd;
      }
    </style>
  </defs>
  <path id="Forma_1" data-name="Forma 1" class="cls-1" d="M1009.03,3035.08h-0.01a0.941,0.941,0,0,0-.95.94,0.955,0.955,0,0,0,1.91,0A0.947,0.947,0,0,0,1009.03,3035.08Zm32.57,0h-0.01a0.941,0.941,0,0,0-.95.94,0.955,0.955,0,0,0,1.91,0A0.947,0.947,0,0,0,1041.6,3035.08Zm-8.15,0h-16.29a0.945,0.945,0,1,0,0,1.89h16.29A0.945,0.945,0,1,0,1033.45,3035.08Zm-14.25-15.12h-6.11a0.94,0.94,0,1,0,0,1.88h6.11A0.94,0.94,0,1,0,1019.2,3019.96Zm48.18,5.63-9.33-34.15a1.928,1.928,0,0,0-.97-1.21,1.991,1.991,0,0,0-1.55-.13l-1.39.46a1.945,1.945,0,0,0-1.34,1.69l-0.27,3.24-17.47,7a3.428,3.428,0,0,0-1.99,2.17l-1.91,6.24a1.954,1.954,0,0,0-1.72,1.93v3.1h-18.38a2.971,2.971,0,0,0-2.99,2.95v7.06a2.979,2.979,0,0,0,2.99,2.96h3.12v2.15h-5.16a4.975,4.975,0,1,0,0,9.95h32.57a4.975,4.975,0,1,0,0-9.95h-5.16v-2.15h3.12a1.957,1.957,0,0,0,1.97-1.95v-4.6a3.708,3.708,0,0,0-.17-1.14l-2.71-8.97,0.97-3.98,9.45-4.54a0.944,0.944,0,0,0,.44-1.26,0.961,0.961,0,0,0-1.28-.44l-9.85,4.74a0.961,0.961,0,0,0-.51.62l-0.86,3.5h-3.84l1.73-5.68a1.538,1.538,0,0,1,.89-0.96l18.59-7.45a1.03,1.03,0,0,1,.79.01,1.008,1.008,0,0,1,.55.56,1.028,1.028,0,0,1-.5,1.3l-3.4,1.63a0.946,0.946,0,1,0,.83,1.7l0.61-.29,7.66,22.29a0.956,0.956,0,0,0-.89.65l-2.84,8.42h-1.4a0.945,0.945,0,1,0,0,1.89h7.69A5.473,5.473,0,0,0,1067.38,3025.59Zm-58.36,13.52a3.09,3.09,0,1,1,3.12-3.09A3.1,3.1,0,0,1,1009.02,3039.11Zm32.57-6.18a3.09,3.09,0,1,1-3.12,3.09A3.111,3.111,0,0,1,1041.59,3032.93Zm-3.93,0a4.925,4.925,0,0,0,0,6.18h-24.7a4.925,4.925,0,0,0,0-6.18h24.7Zm1.96-5.98h0a0.061,0.061,0,0,1-.07.06h-18.32a0.945,0.945,0,1,0,0,1.89h13.3v2.15h-18.45v-2.15h1.08a0.945,0.945,0,1,0,0-1.89h-6.1a1.082,1.082,0,0,1-1.09-1.07v-7.06a1.082,1.082,0,0,1,1.09-1.07h18.38v2.26a2.9,2.9,0,0,0,.88,2.09l1.86,1.84a2.964,2.964,0,0,0,2.11.87h5.33v2.08Zm-2.86-14.18a0.056,0.056,0,0,1,.06.05l2.71,8.94a1.964,1.964,0,0,1,.09.59v0.63h-5.33a1.107,1.107,0,0,1-.77-0.31l-1.86-1.85a1.06,1.06,0,0,1-.31-0.75v-7.24a0.065,0.065,0,0,1,.06-0.06h5.35Zm18.21-11.9,1.07-.52a2.907,2.907,0,0,0,1.44-3.7,2.948,2.948,0,0,0-2.98-1.81l0.2-2.44a0.066,0.066,0,0,1,.04-0.05l1.39-.46a0.083,0.083,0,0,1,.05,0,0.076,0.076,0,0,1,.04.04l8.81,32.28a5.763,5.763,0,0,0-1.56-.22h-0.55Zm8.5,32.19h-4.28l2.42-7.18h1.86A3.59,3.59,0,1,1,1063.47,3033.06Z" transform="translate(-1004 -2990)"/>
</svg>
