<svg xmlns="http://www.w3.org/2000/svg" width="62" height="42" viewBox="0 0 62 42">
  <defs>
    <style>
      .cls-1 {
        fill: #ffc000;
        fill-rule: evenodd;
      }
    </style>
  </defs>
  <path id="Forma_1" data-name="Forma 1" class="cls-1" d="M301.68,3163.58l-23.773-.58a1.62,1.62,0,0,0-.492.08l-9.161,3.42a1.348,1.348,0,0,0-.691.61h-7.645a1.37,1.37,0,0,0-.572.11l-5.7,2.73a1.309,1.309,0,0,0-.744,1.18v1.35H246.33a1.315,1.315,0,1,0,0,2.63h6.554v0.3a1.321,1.321,0,0,0,.745,1.18l5.185,2.48,0.519,0.23a1.418,1.418,0,0,0,.572.12h7.472v0.07a1.345,1.345,0,0,0,.957,1.26l9.161,2.7a2.527,2.527,0,0,0,.385.04h2.261v2.99a2.721,2.721,0,0,0,2.765,2.65h2.952v6.43h-1.449a4.72,4.72,0,1,0,0,9.44h13.136a4.693,4.693,0,0,0,.678-9.35V3183.5h3.35a5.362,5.362,0,0,0,5.425-5.31v-9.21A5.381,5.381,0,0,0,301.68,3163.58Zm-43.61,12.22-2.526-1.21v-2.63l2.526-1.21v5.05Zm9.307,1.01h-6.648v-7.08h6.648v7.08Zm9.174,3.66-6.515-1.94v-9.9l6.515-2.43v14.27Zm6.355,6.05a0.118,0.118,0,0,1-.106-0.03v-2.99h3.058v3.02h-2.952Zm16.766,13.8a2.077,2.077,0,0,1-.625,1.47,2.107,2.107,0,0,1-1.5.6H284.409a2.1,2.1,0,0,1-2.128-2.06v-0.01a2.059,2.059,0,0,1,.625-1.47l0.014-.03a2.144,2.144,0,0,1,1.489-.63h2.765a1.3,1.3,0,0,0,1.343-1.24V3183.5h7.047v13.42a1.251,1.251,0,0,0,1.236,1.27h0.745A2.134,2.134,0,0,1,299.672,3200.32Zm4.667-22.18a2.741,2.741,0,0,1-2.712,2.74H279.21v-15.23l22.4,0.55a2.809,2.809,0,0,1,2.726,2.78v9.16Zm-4.786-9.11a1.324,1.324,0,0,0-1.33,1.31v6.43a1.33,1.33,0,0,0,2.659,0v-6.43A1.324,1.324,0,0,0,299.553,3169.03Zm-4.255,0a1.325,1.325,0,0,0-1.33,1.31v6.43a1.33,1.33,0,0,0,2.659,0v-6.43A1.324,1.324,0,0,0,295.3,3169.03Zm-4.122,0a1.324,1.324,0,0,0-1.329,1.31v6.43a1.33,1.33,0,0,0,2.659,0v-6.43A1.324,1.324,0,0,0,291.176,3169.03Z" transform="translate(-245 -3163)"/>
</svg>
