<svg xmlns="http://www.w3.org/2000/svg" width="52" height="50" viewBox="0 0 52 50">
  <defs>
    <style>
      .cls-1 {
        fill: #ffc000;
        fill-rule: evenodd;
      }
    </style>
  </defs>
  <path id="Forma_1" data-name="Forma 1" class="cls-1" d="M676.673,3170.37a1.027,1.027,0,0,0-1.436,0,1,1,0,0,0,0,1.42,1.027,1.027,0,0,0,1.436,0A1,1,0,0,0,676.673,3170.37Zm-2.872-5.66a1.029,1.029,0,0,0-1.437,0,0.985,0.985,0,0,0,0,1.41,1.01,1.01,0,0,0,1.437,0A0.985,0.985,0,0,0,673.8,3164.71Zm-7.182-1.42a1.029,1.029,0,0,0-1.437,0,1,1,0,0,0,0,1.42,1.029,1.029,0,0,0,1.437,0A1,1,0,0,0,666.619,3163.29Zm-35.558,43.7a1.029,1.029,0,0,0-1.437,0,1,1,0,0,0,0,1.42,1.029,1.029,0,0,0,1.437,0A1,1,0,0,0,631.061,3206.99Zm8.258-8.29a1.018,1.018,0,0,0-1.436.02l-5.395,5.45a0.985,0.985,0,0,0,.018,1.41,1.021,1.021,0,0,0,1.436-.01l5.394-5.46A0.984,0.984,0,0,0,639.319,3198.7Zm33.045-12.74-3.583-3.54s-0.01-.01-0.016-0.01l-4.294-4.24s-0.01-.01-0.015-0.01l-4.293-4.24s-0.01-.01-0.015-0.01l-4.3-4.24a0.17,0.17,0,0,0-.014-0.01l-3.584-3.54a1.034,1.034,0,0,0-1.436,0l-11.49,11.34-1.438,1.41a4.976,4.976,0,0,0,0,7.09l2.874,2.83a1,1,0,0,1,0,1.42l-1.417,1.39-12.3,10.87h0c-0.105.09-.2,0.18-0.291,0.27a5.957,5.957,0,0,0,0,8.5,6.154,6.154,0,0,0,8.617,0c0.093-.09.185-0.19,0.28-0.29h0l10.883-12.27,1.412-1.39a1.027,1.027,0,0,1,1.436,0l2.873,2.83a5.12,5.12,0,0,0,7.181,0l1.438-1.41,11.49-11.34A0.985,0.985,0,0,0,672.364,3185.96Zm-38.241,23.67h0c-0.066.07-.128,0.13-0.19,0.2a4.111,4.111,0,0,1-5.745,0,3.977,3.977,0,0,1,0-5.67c0.063-.06.13-0.12,0.205-0.19h0s0,0,0-.01l11.609-10.25,4.394,4.33ZM658,3198.71a3.076,3.076,0,0,1-4.308,0l-2.873-2.84a3.084,3.084,0,0,0-4.309,0l-0.718.71-4.309-4.25,0.718-.71a2.947,2.947,0,0,0,.892-2.12,2.987,2.987,0,0,0-.892-2.13l-2.873-2.83a2.98,2.98,0,0,1,0-4.25l0.719-.71L658.719,3198Zm2.156-2.13-18.673-18.41,10.054-9.92,2.154,2.12-5.027,4.96a1,1,0,0,0,0,1.42,1.035,1.035,0,0,0,1.437,0l5.027-4.96,2.873,2.84-5.027,4.95a1,1,0,0,0,0,1.42,1.034,1.034,0,0,0,1.436,0l5.027-4.96,2.872,2.83-5.027,4.96a1,1,0,0,0,0,1.42,1.034,1.034,0,0,0,1.436,0l5.028-4.96,2.873,2.83-5.027,4.96a1,1,0,0,0,0,1.42,1.034,1.034,0,0,0,1.436,0l5.027-4.96,2.154,2.13Zm3.59-30.46a1.027,1.027,0,0,0-1.436,0l-2.873,2.84a0.985,0.985,0,0,0,0,1.41,1.01,1.01,0,0,0,1.437,0l2.872-2.83A1,1,0,0,0,663.746,3166.12ZM658,3163.29a1.027,1.027,0,0,0-1.436,0l-1.436,1.42a0.984,0.984,0,0,0,0,1.41,1.009,1.009,0,0,0,1.436,0l1.436-1.41A1,1,0,0,0,658,3163.29Zm12.928,4.25a1.029,1.029,0,0,0-1.437,0l-5.745,5.67a0.984,0.984,0,0,0,0,1.41,1.009,1.009,0,0,0,1.436,0l5.746-5.66A1,1,0,0,0,670.928,3167.54Zm2.873,5.67a1.027,1.027,0,0,0-1.436,0l-4.31,4.25a0.985,0.985,0,0,0,0,1.41,1.01,1.01,0,0,0,1.437,0l4.309-4.25A0.984,0.984,0,0,0,673.8,3173.21Zm1.436,7.08a1.027,1.027,0,0,0-1.436,0l-1.436,1.42a0.984,0.984,0,0,0,0,1.41,1.009,1.009,0,0,0,1.436,0l1.436-1.41A1,1,0,0,0,675.237,3180.29Z" transform="translate(-624.969 -3163)"/>
</svg>
